<svg width="163" height="44" viewBox="0 0 163 44" fill="none" xmlns="http://www.w3.org/2000/svg">
<g clip-path="url(#clip0_1353_126414)">
<path d="M0.25293 43.7521V36.5961H2.36632C2.95517 36.5848 3.5364 36.7307 4.05009 37.0187C4.54162 37.2972 4.94042 37.7141 5.19687 38.2175C5.47345 38.7691 5.61196 39.3796 5.60049 39.9965V40.3621C5.61335 40.9829 5.47357 41.5974 5.1934 42.1515C4.93557 42.6535 4.53389 43.0673 4.0397 43.3399C3.51281 43.6259 2.92071 43.7704 2.32128 43.7591L0.25293 43.7521ZM1.49671 37.5991V42.7578H2.30915C2.96049 42.7578 3.46054 42.554 3.80931 42.1463C4.15807 41.7386 4.33592 41.1531 4.34285 40.3898V39.9913C4.34285 39.2153 4.17424 38.6223 3.83702 38.2123C3.49981 37.8023 3.00957 37.5979 2.36632 37.5991H1.49671Z" fill="#00B2E3"/>
<path d="M9.7835 43.7523H8.54492V36.5962H9.7835V43.7523Z" fill="#00B2E3"/>
<path d="M18.4658 42.822C18.1874 43.1747 17.8142 43.4409 17.3901 43.5894C16.8903 43.7694 16.3621 43.8575 15.831 43.8492C15.2732 43.8605 14.7229 43.7197 14.239 43.4421C13.7715 43.167 13.3974 42.7578 13.165 42.2676C12.9032 41.7138 12.7694 41.1081 12.7735 40.4955V39.936C12.7735 38.855 13.0322 38.0108 13.5496 37.4034C14.067 36.7959 14.7899 36.4916 15.7184 36.4905C16.5141 36.4905 17.1493 36.688 17.6239 37.0829C18.0986 37.4779 18.3804 38.0455 18.4693 38.7858H17.2567C17.1193 37.9254 16.6198 37.4946 15.7583 37.4935C15.5093 37.479 15.2608 37.528 15.036 37.6359C14.8111 37.7438 14.6174 37.9069 14.4729 38.1102C14.1784 38.5063 14.0312 39.0918 14.0312 39.8667V40.4158C14.0312 41.1896 14.194 41.7895 14.5197 42.2157C14.677 42.4248 14.8828 42.5924 15.1195 42.7041C15.3561 42.8158 15.6164 42.8681 15.8778 42.8566C16.5153 42.8566 16.968 42.7128 17.2359 42.4253V41.0239H15.7531V40.0815H18.4658V42.822Z" fill="#00B2E3"/>
<path d="M22.8294 43.7523H21.5908V36.5962H22.8294V43.7523Z" fill="#00B2E3"/>
<path d="M31.1811 37.5992H28.9465V43.7523H27.7166V37.5992H25.501V36.5962H31.1811V37.5992Z" fill="#00B2E3"/>
<path d="M37.0105 42.0943H34.2388L33.6585 43.7608H32.3662L35.0686 36.6047H36.1842L38.8935 43.7608H37.5908L37.0105 42.0943ZM34.5853 41.0914H36.664L35.6246 38.1239L34.5853 41.0914Z" fill="#00B2E3"/>
<path d="M42.7008 42.7579H45.9488V43.7523H41.457V36.5962H42.7008V42.7579Z" fill="#00B2E3"/>
<path d="M58.234 42.8219C57.9556 43.1746 57.5825 43.4408 57.1583 43.5893C56.6585 43.7692 56.1303 43.8572 55.5992 43.8491C55.041 43.8602 54.4901 43.7195 54.0055 43.442C53.5418 43.1669 53.1699 42.7607 52.9367 42.2745C52.6763 41.7202 52.5431 41.1147 52.547 40.5024V39.9428C52.547 38.8619 52.8056 38.0177 53.323 37.4102C53.8404 36.8028 54.5628 36.4985 55.4901 36.4973C56.287 36.4973 56.9192 36.6948 57.387 37.0898C57.8547 37.4847 58.1365 38.0523 58.2323 38.7926H57.0197C56.8811 37.9322 56.3811 37.5015 55.5196 37.5003C55.2746 37.4868 55.0301 37.5347 54.8084 37.6397C54.5866 37.7446 54.3946 37.9034 54.2498 38.1014C53.9611 38.5033 53.8109 39.0917 53.7994 39.8666V40.4157C53.7994 41.1895 53.9628 41.7894 54.2896 42.2156C54.4468 42.4248 54.6527 42.5925 54.8893 42.7042C55.126 42.8159 55.3863 42.8682 55.6477 42.8565C56.2841 42.8565 56.7362 42.7127 57.0041 42.4252V41.0238H55.5299V40.0814H58.2427L58.234 42.8219Z" fill="#00B2E3"/>
<path d="M63.9333 40.9997H62.5475V43.7523H61.3037V36.5962H63.8207C64.6464 36.5962 65.2816 36.7815 65.7262 37.1523C66.1709 37.523 66.3949 38.0588 66.3984 38.7598C66.414 39.1878 66.2926 39.6096 66.0519 39.9638C65.8062 40.2974 65.472 40.5554 65.087 40.7086L66.6946 43.6882V43.7523H65.3624L63.9333 40.9997ZM62.5475 39.9967H63.8259C64.1815 40.0181 64.5321 39.9049 64.8081 39.6797C64.9269 39.5699 65.0202 39.4355 65.0816 39.2859C65.1429 39.1363 65.1708 38.975 65.1632 38.8135C65.1733 38.6508 65.1494 38.4877 65.0931 38.3347C65.0367 38.1817 64.9491 38.0421 64.8358 37.9249C64.5643 37.6959 64.2152 37.5799 63.8606 37.6009H62.5475V39.9967Z" fill="#00B2E3"/>
<path d="M74.9452 40.362C74.9589 40.9961 74.8348 41.6255 74.5815 42.2069C74.3626 42.705 74.0008 43.127 73.5421 43.4195C73.0717 43.6973 72.5354 43.8438 71.9891 43.8438C71.4428 43.8438 70.9065 43.6973 70.4361 43.4195C69.9748 43.1265 69.6093 42.705 69.3846 42.2069C69.1276 41.6373 68.9993 41.018 69.0087 40.3932V39.9896C68.9958 39.3538 69.1223 38.7229 69.3794 38.1412C69.598 37.6397 69.9595 37.2138 70.4188 36.9165C70.8887 36.6392 71.4244 36.4929 71.97 36.4929C72.5157 36.4929 73.0514 36.6392 73.5213 36.9165C73.9804 37.2086 74.3422 37.6307 74.5607 38.1291C74.8177 38.706 74.9454 39.3321 74.9349 39.9636L74.9452 40.362ZM73.7015 39.9896C73.7015 39.1962 73.5519 38.5882 73.2528 38.1655C73.1049 37.9689 72.9134 37.8095 72.6934 37.6996C72.4733 37.5898 72.2307 37.5326 71.9848 37.5326C71.7388 37.5326 71.4962 37.5898 71.2762 37.6996C71.0561 37.8095 70.8646 37.9689 70.7167 38.1655C70.4136 38.5882 70.2594 39.1823 70.2525 39.9532V40.362C70.2525 41.1485 70.4055 41.7565 70.7115 42.1861C70.8527 42.392 71.0436 42.5589 71.2665 42.6712C71.4894 42.7836 71.7371 42.8378 71.9865 42.8288C72.2341 42.8404 72.4806 42.7887 72.7028 42.6787C72.9249 42.5687 73.1154 42.4039 73.2563 42.2C73.5542 41.7808 73.7026 41.1681 73.7015 40.362V39.9896Z" fill="#00B2E3"/>
<path d="M83.2869 41.9819L84.3869 36.5962H85.622L83.9694 43.7523H82.781L81.4177 38.5277L80.0319 43.7523H78.8384L77.1875 36.5962H78.4192L79.5313 41.9663L80.8963 36.5962H81.9357L83.2869 41.9819Z" fill="#00B2E3"/>
<path d="M93.6591 37.5992H91.4279V43.7523H90.1945V37.5992H87.9824V36.5962H93.6591V37.5992Z" fill="#00B2E3"/>
<path d="M101.966 43.7523H100.727V40.577H97.528V43.7523H96.2842V36.5962H97.528V39.574H100.727V36.5962H101.966V43.7523Z" fill="#00B2E3"/>
<path d="M110.52 41.0984V43.7523H109.276V36.5962H112.013C112.813 36.5962 113.448 36.8046 113.919 37.2215C114.151 37.4277 114.335 37.6828 114.457 37.9686C114.579 38.2544 114.636 38.5637 114.624 38.8741C114.624 39.5763 114.393 40.1225 113.931 40.5129C113.469 40.9032 112.824 41.0984 111.996 41.0984H110.52ZM110.52 40.0954H112.013C112.378 40.1206 112.738 40.0095 113.025 39.7836C113.145 39.6675 113.238 39.5266 113.298 39.3707C113.358 39.2148 113.383 39.0477 113.371 38.8811C113.38 38.7111 113.354 38.5411 113.295 38.3817C113.235 38.2223 113.143 38.0768 113.025 37.9543C112.758 37.7157 112.409 37.5913 112.051 37.6078H110.52V40.0954Z" fill="#00B2E3"/>
<path d="M120.858 42.0943H118.086L117.508 43.7608H116.214L118.918 36.6047H120.034L122.741 43.7608H121.444L120.858 42.0943ZM118.433 41.0914H120.512L119.472 38.1239L118.433 41.0914Z" fill="#00B2E3"/>
<path d="M127.932 40.9997H126.547V43.7523H125.303V36.5962H127.82C128.644 36.5962 129.284 36.7815 129.725 37.1523C130.167 37.523 130.399 38.0582 130.399 38.7598C130.414 39.1877 130.293 39.6092 130.053 39.9638C129.807 40.2974 129.473 40.5554 129.088 40.7086L130.695 43.6882V43.7523H129.361L127.932 40.9997ZM126.547 39.9967H127.825C128.181 40.0181 128.531 39.9049 128.807 39.6797C128.924 39.5691 129.016 39.4344 129.076 39.2848C129.136 39.1352 129.162 38.9744 129.154 38.8135C129.164 38.6508 129.14 38.4877 129.083 38.3347C129.027 38.1817 128.939 38.0421 128.826 37.9249C128.555 37.6959 128.206 37.5799 127.851 37.6009H126.538L126.547 39.9967Z" fill="#00B2E3"/>
<path d="M138.465 37.5992H136.234V43.7523H135V37.5992H132.788V36.5962H138.465V37.5992Z" fill="#00B2E3"/>
<path d="M146.766 43.7523H145.524L142.333 38.6749V43.7523H141.089V36.5962H142.333L145.532 41.6926V36.5962H146.766V43.7523Z" fill="#00B2E3"/>
<path d="M154.131 40.5579H151.186V42.7579H154.622V43.7523H149.944V36.5962H154.589V37.5992H151.193V39.574H154.138L154.131 40.5579Z" fill="#00B2E3"/>
<path d="M159.947 40.9997H158.561V43.7523H157.317V36.5962H159.834C160.659 36.5962 161.294 36.7815 161.74 37.1523C162.186 37.523 162.41 38.0588 162.414 38.7598C162.429 39.1877 162.307 39.6092 162.067 39.9638C161.822 40.2974 161.487 40.5554 161.102 40.7086L162.71 43.6882V43.7523H161.376L159.947 40.9997ZM158.561 39.9967H159.84C160.195 40.0181 160.546 39.9049 160.822 39.6797C160.939 39.5692 161.031 39.4345 161.091 39.2849C161.151 39.1353 161.177 38.9744 161.168 38.8135C161.178 38.6509 161.154 38.488 161.098 38.3351C161.042 38.1821 160.955 38.0425 160.843 37.9249C160.571 37.6954 160.221 37.5795 159.866 37.6009H158.554L158.561 39.9967Z" fill="#00B2E3"/>
<path d="M4.07914 4.77075L15.339 19.7065V4.77075H19.3925V26.5975H15.4308L4.20386 11.6999V26.5975H0.119141V4.77075H4.07914Z" fill="#00B2E3"/>
<path d="M43.187 4.77075V8.41894H31.3694V13.8133H41.9709V17.4615H31.3694V22.9493H43.5612V26.5975H27.1963V4.77075H43.187Z" fill="#00B2E3"/>
<path d="M65.8122 4.77075V8.48823H59.0147V26.5975H54.8053V8.48823H48.0078V4.77075H65.8122Z" fill="#00B2E3"/>
<path d="M88.5832 12.2854C88.5832 17.2726 85.4339 20.1742 79.946 20.1742H75.1805V26.5975H70.9971V4.77075H79.946C85.4339 4.77075 88.5832 7.48351 88.5832 12.2854ZM84.6232 12.4101C84.6232 9.72855 82.8459 8.42587 79.7278 8.42587H75.1805V16.4948H79.733C82.8459 16.4948 84.6232 15.1523 84.6232 12.4101Z" fill="#00B2E3"/>
<path d="M110.456 4.77075V8.41894H98.638V13.8133H109.238V17.4615H98.638V22.9493H110.83V26.5975H94.458V4.77075H110.456Z" fill="#00B2E3"/>
<path d="M157.592 26.5975L150.796 17.2432L147.304 21.1097V26.5975H143.124V4.77075H147.304V15.4347L157.178 4.77075H162.042L153.726 13.9986L162.643 26.5975H157.592Z" fill="#00B2E3"/>
<path d="M126.976 4.86245L133.264 17.4336L137.858 26.6147H116.089L120.683 17.4336L126.976 4.86245ZM126.976 0.150635L125.085 3.92008L118.798 16.4913L114.204 25.6724L112.68 28.7229H141.262L139.738 25.6724L135.144 16.4913L128.856 3.92008L126.976 0.150635Z" fill="#00B2E3"/>
<path d="M130.025 15.9457L126.971 9.83594L123.915 15.9457H130.025Z" fill="#00B2E3"/>
<path d="M131.169 18.2305H122.772L119.706 24.3628H134.235L131.169 18.2305Z" fill="#00B2E3"/>
</g>
<defs>
<clipPath id="clip0_1353_126414">
<rect width="162.835" height="44" fill="white"/>
</clipPath>
</defs>
</svg>
