<?xml version="1.0" encoding="UTF-8"?>
<svg width="273px" height="80px" viewBox="0 0 273 80" version="1.1" xmlns="http://www.w3.org/2000/svg" xmlns:xlink="http://www.w3.org/1999/xlink">
    <!-- Generator: Sketch 57.1 (83088) - https://sketch.com -->
    <title>group_white_word</title>
    <desc>Created with Sketch.</desc>
    <g id="Page-1" stroke="none" stroke-width="1" fill="none" fill-rule="evenodd">
        <g id="group_white_word" fill-rule="nonzero">
            <path d="M252.5,26.69 L247.9,31.48 C247.748296,31.6392583 247.662544,31.8500662 247.66,32.07 L247.66,39.85 C247.66,40.319442 247.279442,40.7000309 246.81,40.7000309 L242.08,40.7000309 C241.610558,40.7000309 241.23,40.319442 241.23,39.85 L241.23,6.45 C241.23,5.98055796 241.610558,5.6 242.08,5.6 L246.81,5.6 C247.279442,5.6 247.66,5.98055796 247.66,6.45 L247.66,21.45 C247.6606,21.7984923 247.873857,22.1113132 248.19803,22.2392179 C248.522202,22.3671226 248.891605,22.2841953 249.13,22.03 L264.54,5.87 C264.701127,5.69911336 264.925135,5.60156149 265.16,5.6 L270.07,5.6 C270.539442,5.6 270.92,5.98055796 270.92,6.45 C270.920424,6.66379781 270.842108,6.87026611 270.7,7.03 L258,20.76 C257.729258,21.0804722 257.729258,21.5495278 258,21.87 L271.9,39.32 C272.104219,39.5760416 272.143169,39.9266363 272.000128,40.221258 C271.857087,40.5158796 271.557503,40.7021131 271.23,40.7000309 L265.87,40.7000309 C265.61654,40.7021476 265.375041,40.5923751 265.21,40.4 L253.77,26.74 C253.625775,26.5657972 253.418074,26.4562525 253.192861,26.4356079 C252.967647,26.4149634 252.743492,26.4849213 252.57,26.63 L252.5,26.69 Z" id="Path" fill="#4AB0DD"></path>
            <path d="M31,6.45 L31,39.85 C31,40.075434 30.9104467,40.2916348 30.7510408,40.4510408 C30.5916348,40.6104467 30.375434,40.7 30.15,40.7 L26.15,40.7 C25.8903977,40.6973864 25.6451967,40.5802754 25.48,40.38 L8.11,18.81 C7.81628219,18.4473331 7.28509358,18.3893041 6.92,18.68 C6.71972456,18.8451967 6.60261365,19.0903977 6.6,19.35 L6.6,39.85 C6.6,40.319442 6.21944204,40.7 5.75,40.7 L1.06,40.7 C0.590557963,40.7 0.21,40.319442 0.21,39.85 L0.21,6.45 C0.21,5.98055796 0.590557963,5.6 1.06,5.6 L5.06,5.6 C5.31960233,5.60261365 5.5648033,5.71972456 5.73,5.92 L23.11,27.49 C23.3313057,27.7638931 23.6985765,27.8729744 24.0335104,27.7642872 C24.3684444,27.6556 24.6016853,27.3516507 24.62,27 L24.62,6.45 C24.62,5.98055796 25.000558,5.6 25.47,5.6 L30.16,5.6 C30.6255321,5.60547723 31,5.98443564 31,6.45 Z" id="Path" fill="#4AB0DD"></path>
            <path d="M71,36.09 L71,39.85 C71,40.319442 70.619442,40.7 70.15,40.7 L45.81,40.7 C45.584566,40.7 45.3683652,40.6104467 45.2089592,40.4510408 C45.0495533,40.2916348 44.96,40.075434 44.96,39.85 L44.96,6.45 C44.96,6.22456598 45.0495533,6.00836516 45.2089592,5.84895924 C45.3683652,5.68955331 45.584566,5.6 45.81,5.6 L69.4,5.6 C69.869442,5.6 70.25,5.98055796 70.25,6.45 L70.25,10.22 C70.25,10.689442 69.869442,11.07 69.4,11.07 L52.24,11.07 C51.770558,11.07 51.39,11.450558 51.39,11.92 L51.39,19.34 C51.39,19.809442 51.770558,20.19 52.24,20.19 L67.24,20.19 C67.709442,20.19 68.09,20.570558 68.09,21.04 L68.09,24.71 C68.09,24.935434 68.0004467,25.1516348 67.8410408,25.3110408 C67.6816348,25.4704467 67.465434,25.56 67.24,25.56 L52.24,25.56 C51.770558,25.56 51.39,25.940558 51.39,26.41 L51.39,34.41 C51.39,34.879442 51.770558,35.26 52.24,35.26 L70.1,35.26 C70.3305307,35.2463609 70.5566881,35.3271077 70.7264514,35.4836672 C70.8962146,35.6402267 70.9949694,35.859121 71,36.09 Z" id="Path" fill="#4AB0DD"></path>
            <path d="M90,11.12 L80.16,11.12 C79.690558,11.12 79.31,10.739442 79.31,10.27 L79.31,6.45 C79.31,5.98055796 79.690558,5.6 80.16,5.6 L107.87,5.6 C108.339442,5.6 108.72,5.98055796 108.72,6.45 L108.72,10.27 C108.72,10.739442 108.339442,11.12 107.87,11.12 L98.08,11.12 C97.610558,11.12 97.23,11.500558 97.23,11.97 L97.23,39.85 C97.23,40.319442 96.849442,40.7 96.38,40.7 L91.65,40.7 C91.180558,40.7 90.8,40.319442 90.8,39.85 L90.8,12 C90.8171032,11.537889 90.4616452,11.1468852 90,11.12 Z" id="Path" fill="#4AB0DD"></path>
            <path d="M145.44,11.42 C144.198585,9.50106495 142.412206,7.99674535 140.31,7.1 C137.832363,6.0504961 135.160065,5.53921471 132.47,5.6 L119.06,5.6 C118.590558,5.6 118.21,5.98055796 118.21,6.45 L118.21,39.85 C118.21,40.075434 118.299553,40.2916348 118.458959,40.4510408 C118.618365,40.6104467 118.834566,40.7 119.06,40.7 L123.79,40.7 C124.015434,40.7 124.231635,40.6104467 124.391041,40.4510408 C124.550447,40.2916348 124.64,40.075434 124.64,39.85 L124.64,31.42 C124.645402,30.9528136 125.022814,30.5754015 125.49,30.57 L132.49,30.57 C135.180065,30.6307853 137.852363,30.1195039 140.33,29.07 C142.435566,28.1689494 144.222533,26.6571679 145.46,24.73 C146.678065,22.733269 147.295973,20.4282654 147.24,18.09 C147.298062,15.7393305 146.672781,13.4223159 145.44,11.42 Z M138.56,23.25 C137.1,24.45 134.98,25.06 132.17,25.06 L125.49,25.06 C125.022814,25.0545985 124.645402,24.6771864 124.64,24.21 L124.64,12 C124.645402,11.5328136 125.022814,11.1554015 125.49,11.15 L132.17,11.15 C134.98,11.15 137.1,11.75 138.56,12.95 C140.047474,14.2424589 140.849418,16.1530819 140.73,18.12 C140.841395,20.0739966 140.039775,21.9690711 138.56,23.25 L138.56,23.25 Z" id="Shape" fill="#4AB0DD"></path>
            <path d="M184.29,36.09 L184.29,39.85 C184.29,40.319442 183.909442,40.7 183.44,40.7 L159.15,40.7 C158.680558,40.7 158.3,40.319442 158.3,39.85 L158.3,6.45 C158.3,5.98055796 158.680558,5.6 159.15,5.6 L182.75,5.6 C183.219442,5.6 183.6,5.98055796 183.6,6.45 L183.6,10.22 C183.6,10.689442 183.219442,11.07 182.75,11.07 L165.59,11.07 C165.120558,11.07 164.74,11.450558 164.74,11.92 L164.74,19.34 C164.74,19.809442 165.120558,20.19 165.59,20.19 L180.59,20.19 C181.059442,20.19 181.44,20.570558 181.44,21.04 L181.44,24.71 C181.44,24.935434 181.350447,25.1516348 181.191041,25.3110408 C181.031635,25.4704467 180.815434,25.56 180.59,25.56 L165.59,25.56 C165.120558,25.56 164.74,25.940558 164.74,26.41 L164.74,34.41 C164.74,34.879442 165.120558,35.26 165.59,35.26 L183.44,35.26 C183.901741,35.2598722 184.279136,35.6283866 184.29,36.09 Z" id="Path" fill="#4AB0DD"></path>
            <path d="M235,44 L214.33,2.69 L214.08,2.24 L213.08,0.24 L212.08,2.24 L191.11,44 L190.96,44.32 L190.14,46.06 L236.14,46.06 C236.14,46.06 235.35,44.72 235,44 Z M230.25,42.8 L195.86,42.8 L196.39,41.69 L212.39,8.24 L213.11,6.78 L213.8,8.24 L229.8,41.68 L230.25,42.8 Z" id="Shape" fill="#4AB0DD"></path>
            <polygon id="Path" fill="#4AB0DD" points="225.59 38.84 220.81 29.16 205.34 29.16 200.53 38.84 199.88 40.17 201.35 40.17 224.76 40.17 226.26 40.17"></polygon>
            <polygon id="Path" fill="#4AB0DD" points="213.13 25.93 207 25.93 210.07 19.82 213.13 13.71 216.19 19.82 219.26 25.93"></polygon>
            <rect id="Rectangle-Copy-4" fill="#4AB0DD" x="117" y="49.6" width="155" height="30" rx="2.46"></rect>
            <path d="M147,70 C147.476158,69.9887345 147.95081,69.9419378 148.42,69.86 C148.826628,69.7713397 149.224789,69.6475415 149.61,69.49 L149.61,66.88 L148,66.88 C147.784968,66.8914213 147.573762,66.8198259 147.41,66.68 C147.271597,66.551118 147.195131,66.3690562 147.2,66.18 L147.2,64.3 C147.205194,64.1365143 147.336514,64.0051939 147.5,64 L152.76,64 C153.036142,64 153.26,64.2238576 153.26,64.5 L153.26,70.93 C153.260157,71.0976501 153.177908,71.2546696 153.04,71.35 C152.671612,71.5925273 152.29112,71.8161498 151.9,72.02 C151.415325,72.2561676 150.909837,72.446981 150.39,72.59 C149.829813,72.7458532 149.257954,72.8562119 148.68,72.92 C148.01589,72.9927657 147.348056,73.0261574 146.68,73.02 C145.494453,73.0300441 144.318604,72.8057492 143.22,72.36 C141.136068,71.5166027 139.483397,69.8639322 138.64,67.78 C138.192954,66.6782834 137.968635,65.4989071 137.98,64.31 C137.966311,63.1107013 138.180084,61.9196772 138.61,60.8 C139.014579,59.7669453 139.631165,58.8301441 140.42,58.05 C141.229216,57.2541236 142.196845,56.6374301 143.26,56.24 C145.097356,55.5903178 147.072531,55.4317523 148.99,55.78 C149.581312,55.8815441 150.160901,56.0423548 150.72,56.26 C151.2228,56.4514002 151.7052,56.6926002 152.16,56.98 C152.44808,57.17093 152.725185,57.3779241 152.99,57.6 L152.99,57.6 C153.184187,57.7680099 153.226664,58.0526094 153.09,58.27 L152.18,59.64 C152.078759,59.793172 151.94575,59.9227707 151.79,60.02 C151.641208,60.1158932 151.466954,60.1646841 151.29,60.16 C151.032711,60.1551544 150.78245,60.0752097 150.57,59.93 C150.26,59.74 149.96,59.58 149.69,59.44 C149.414393,59.3110509 149.130417,59.2008017 148.84,59.11 C148.541455,59.0255797 148.237383,58.9620922 147.93,58.92 C147.61,58.92 147.25,58.87 146.85,58.87 C146.163422,58.8590095 145.482147,58.9918582 144.85,59.26 C144.270139,59.5131177 143.751686,59.8883137 143.33,60.36 C142.884812,60.8605558 142.544747,61.4454668 142.33,62.08 C142.092937,62.7991324 141.978014,63.552896 141.99,64.31 C141.975815,65.1285 142.100932,65.9434516 142.36,66.72 C142.572415,67.3705841 142.91237,67.9723057 143.36,68.49 C143.811635,68.9839772 144.373555,69.3643011 145,69.6 C145.644163,69.8280905 146.317661,69.9627902 147,70 L147,70 L147,70 Z" id="Path" fill="#FFFFFF"></path>
            <path d="M177.12,72.07 L174,66.9 C173.841111,66.6314462 173.638296,66.3914491 173.4,66.19 C173.174995,65.9960993 172.926352,65.8314576 172.66,65.7 C173.18674,65.5028301 173.681942,65.2299639 174.13,64.89 C174.541092,64.5727458 174.901838,64.1951424 175.2,63.77 C175.494785,63.3569306 175.717905,62.8971688 175.86,62.41 C176.211791,61.2334748 176.158977,59.9729735 175.71,58.83 C175.451938,58.2036577 175.039031,57.6531156 174.51,57.23 C173.881663,56.7320357 173.156135,56.3709745 172.38,56.17 C171.353535,55.8935532 170.292759,55.7655866 169.23,55.79 L164.18,55.79 C163.903858,55.79 163.68,56.0138576 163.68,56.29 L163.68,72.29 C163.68,72.5661424 163.903858,72.79 164.18,72.79 L167.18,72.79 C167.456142,72.79 167.68,72.5661424 167.68,72.29 L167.68,67 C167.68,66.7238576 167.903858,66.5 168.18,66.5 L168.68,66.5 C168.924846,66.4836357 169.169693,66.5319153 169.39,66.64 C169.579505,66.750227 169.732494,66.9136466 169.83,67.11 L172.66,72.11 C172.959488,72.6060532 173.512075,72.8920072 174.09,72.85 L176.78,72.85 C176.87157,72.8519504 176.961787,72.8276613 177.04,72.78 C177.145975,72.6972937 177.214183,72.5753984 177.229234,72.4418151 C177.244286,72.3082319 177.204914,72.1742149 177.12,72.07 L177.12,72.07 Z M172,62.18 C171.894124,62.5017689 171.712335,62.7933175 171.47,63.03 C171.205133,63.2853612 170.887758,63.4798815 170.54,63.6 C170.097668,63.7425417 169.634621,63.8101399 169.17,63.8 L168.1,63.8 C167.823858,63.8 167.6,63.5761424 167.6,63.3 L167.6,59.3 C167.6,59.0238576 167.823858,58.8 168.1,58.8 L169.19,58.8 C169.994306,58.7343116 170.795665,58.9576992 171.45,59.43 C171.946342,59.8722929 172.214902,60.5161022 172.18,61.18 C172.173471,61.5207756 172.11271,61.8583368 172,62.18 L172,62.18 Z" id="Shape" fill="#FFFFFF"></path>
            <path d="M202.81,60.88 C201.980051,58.7768623 200.319509,57.1090852 198.22,56.27 C195.885915,55.3765312 193.304085,55.3765312 190.97,56.27 C189.922018,56.6834091 188.969293,57.3060826 188.17,58.1 C187.38498,58.8851281 186.771979,59.8250629 186.37,60.86 C185.517144,63.0740424 185.517144,65.5259576 186.37,67.74 C186.770752,68.7785069 187.383821,69.7219514 188.17,70.51 C188.966199,71.3101793 189.919576,71.9366845 190.97,72.35 C193.304085,73.2434688 195.885915,73.2434688 198.22,72.35 C199.265597,71.9386951 200.212828,71.311751 201,70.51 C201.779756,69.716774 202.391908,68.7747402 202.8,67.74 C203.640207,65.5305142 203.640207,63.0894858 202.8,60.88 L202.81,60.88 Z M199.07,66.59 C198.877517,67.2215537 198.557597,67.8069391 198.13,68.31 C197.714557,68.7768242 197.198133,69.1427671 196.62,69.38 C195.983403,69.6310536 195.30428,69.7566913 194.62,69.75 C193.935872,69.7549532 193.257077,69.6293762 192.62,69.38 C192.041867,69.1427671 191.525443,68.7768242 191.11,68.31 C190.67877,67.8094456 190.358411,67.2232575 190.17,66.59 C189.727627,65.1021865 189.727627,63.5178135 190.17,62.03 C190.356276,61.3988506 190.67695,60.8154959 191.11,60.32 C191.521671,59.8465621 192.038934,59.4765987 192.62,59.24 C193.255043,58.9825431 193.934784,58.8533923 194.62,58.86 C195.305382,58.8515158 195.98549,58.9807364 196.62,59.24 C197.201066,59.4765987 197.718329,59.8465621 198.13,60.32 C198.559511,60.8179626 198.879746,61.4005161 199.07,62.03 C199.512373,63.5178135 199.512373,65.1021865 199.07,66.59 L199.07,66.59 Z" id="Shape" fill="#FFFFFF"></path>
            <path d="M220.43,69.71 C220.915727,69.7163738 221.398043,69.6280623 221.85,69.45 C222.256287,69.2801343 222.618723,69.0202744 222.91,68.69 C223.215076,68.3430559 223.440366,67.9334372 223.57,67.49 C223.729121,66.9718088 223.806714,66.4320299 223.8,65.89 L223.8,56.29 C223.8,56.0138576 224.023858,55.79 224.3,55.79 L227.25,55.79 C227.526142,55.79 227.75,56.0138576 227.75,56.29 L227.75,65.89 C227.760393,66.8692055 227.590917,67.8419983 227.25,68.76 C226.925669,69.6007216 226.428249,70.3638856 225.79,71 C225.132917,71.6506292 224.345705,72.1549904 223.48,72.48 C222.520143,72.8350699 221.503363,73.0113117 220.48,73 C219.43336,73.0174085 218.392526,72.8411108 217.41,72.48 C216.548404,72.1526738 215.764917,71.6485171 215.11,71 C214.469135,70.3602152 213.97446,69.5892037 213.66,68.74 C213.315265,67.8230346 213.145664,66.8495214 213.16,65.87 L213.16,56.27 C213.16,55.9938576 213.383858,55.77 213.66,55.77 L216.61,55.77 C216.886142,55.77 217.11,55.9938576 217.11,56.27 L217.11,65.85 C217.10338,66.3953035 217.180959,66.9383623 217.34,67.46 C217.47429,67.9044955 217.698989,68.3164432 218,68.67 C218.291277,69.0002744 218.653713,69.2601343 219.06,69.43 C219.495003,69.6086323 219.959791,69.7036257 220.43,69.71 L220.43,69.71 Z" id="Path" fill="#FFFFFF"></path>
            <path d="M250.8,59.16 C250.535626,58.4810945 250.114105,57.8745162 249.57,57.39 C248.947311,56.856374 248.222635,56.4549106 247.44,56.21 C246.43458,55.910643 245.388829,55.7689606 244.34,55.79 L238.83,55.79 C238.553858,55.79 238.33,56.0138576 238.33,56.29 L238.33,72.29 C238.33,72.5661424 238.553858,72.79 238.83,72.79 L241.78,72.79 C242.056142,72.79 242.28,72.5661424 242.28,72.29 L242.28,67.64 C242.28,67.3638576 242.503858,67.14 242.78,67.14 L244.34,67.14 C245.376209,67.1575512 246.408759,67.0124544 247.4,66.71 C248.18755,66.4646545 248.916051,66.0595533 249.54,65.52 C250.095857,65.0217095 250.524451,64.3976777 250.79,63.7 C251.068595,62.9516304 251.20756,62.1585079 251.2,61.36 C251.208367,60.6078528 251.072588,59.8610645 250.8,59.16 Z M246.56,63.42 C245.95577,63.9650177 245.149771,64.2300534 244.34,64.15 L242.78,64.15 C242.503858,64.15 242.28,63.9261424 242.28,63.65 L242.28,59.25 C242.28,58.9738576 242.503858,58.75 242.78,58.75 L244.34,58.75 C244.776844,58.7408786 245.212338,58.8016453 245.63,58.93 C245.968781,59.0421489 246.279237,59.2263759 246.54,59.47 C246.773806,59.7018556 246.954618,59.9816024 247.07,60.29 C247.185407,60.6348215 247.242853,60.9963896 247.24,61.36 C247.287319,62.1086453 247.043707,62.8466449 246.56,63.42 L246.56,63.42 Z" id="Shape" fill="#FFFFFF"></path>
        </g>
    </g>
</svg>